<?xml version="1.0" encoding="UTF-8"?>
<svg width="14.0000311px" height="14px" viewBox="0 0 14.0000311 14" version="1.1" xmlns="http://www.w3.org/2000/svg" xmlns:xlink="http://www.w3.org/1999/xlink">
    <title>Path</title>
    <g id="Page-1" stroke="none" stroke-width="1" fill="none" fill-rule="evenodd">
        <g id="People-list-mobile" transform="translate(-171.000000, -498.000000)" fill="#282828">
            <g id="Group-4" transform="translate(27.000000, 443.000000)">
                <g id="Group-2-Copy-6" transform="translate(128.000000, 46.000000)">
                    <path d="M23.0057922,9 C19.1317701,9 16,12.2083199 16,16.1774492 C16,19.3501859 18.006633,22.0358413 20.7903649,22.986379 C21.1384031,23.0578371 21.265888,22.8319422 21.265888,22.6419221 C21.265888,22.475527 21.2544158,21.9051752 21.2544158,21.3109069 C19.3055741,21.7387801 18.8997446,20.4553063 18.8997446,20.4553063 C18.5865533,19.6234764 18.1225023,19.4096856 18.1225023,19.4096856 C17.4846474,18.97 18.1689648,18.97 18.1689648,18.97 C18.8765134,19.0175414 19.2477828,19.7067469 19.2477828,19.7067469 C19.8740221,20.799909 20.8831464,20.4910353 21.2891193,20.3008694 C21.3470539,19.837413 21.5327603,19.516581 21.7299389,19.3383734 C20.1755978,19.1719783 18.5402342,18.554085 18.5402342,15.7971174 C18.5402342,15.012829 18.8184353,14.371165 19.259255,13.8721255 C19.1897047,13.6939179 18.9460637,12.9570251 19.3289487,11.9707584 C19.3289487,11.9707584 19.9204845,11.7805925 21.2542724,12.7075053 C21.8253144,12.5503943 22.4142208,12.4704709 23.0057922,12.469798 C23.597328,12.469798 24.2003361,12.5530685 24.7571685,12.7075053 C26.0910998,11.7805925 26.6826356,11.9707584 26.6826356,11.9707584 C27.0655206,12.9570251 26.8217362,13.6939179 26.7521859,13.8721255 C27.2046212,14.371165 27.4713501,15.012829 27.4713501,15.7971174 C27.4713501,18.554085 25.8359865,19.16002 24.2700298,19.3383734 C24.5252864,19.5641225 24.7455529,19.9918499 24.7455529,20.6692429 C24.7455529,21.6317388 24.7340807,22.4042148 24.7340807,22.6417763 C24.7340807,22.8319422 24.861709,23.0578371 25.2096038,22.9865248 C27.9933357,22.0356955 30,19.3501859 30,16.1774492 C30.0114409,12.2083199 26.8681986,9 23.0057922,9 Z" id="Path"></path>
                </g>
            </g>
        </g>
    </g>
</svg>