<?xml version="1.0" encoding="UTF-8"?>
<svg width="131.504883px" height="18.3958366px" viewBox="0 0 131.504883 18.3958366" version="1.1" xmlns="http://www.w3.org/2000/svg" xmlns:xlink="http://www.w3.org/1999/xlink">
    <title>Combined Shape</title>
    <g id="Page-1" stroke="none" stroke-width="1" fill="none" fill-rule="evenodd">
        <g id="Homepage-mobile" transform="translate(-24.000000, -96.000000)" fill="#000000" fill-rule="nonzero">
            <path d="M24.651821,102.246618 C24.7242455,101.419771 24.7830905,100.601977 24.8283558,99.793236 C24.8736212,98.9844951 24.9234131,98.1546305 24.9777315,97.303642 C24.9898022,97.1044744 25.0094172,96.9671696 25.0365764,96.8917273 C25.0637356,96.8162851 25.1316336,96.7664932 25.2402705,96.7423517 C25.8015608,96.6397502 26.3643599,96.5356399 26.9286679,96.4300208 C27.4929759,96.3244016 28.0587927,96.1840791 28.6261184,96.0090531 C28.6442245,96.0030177 28.6713837,96 28.707596,96 C28.7739852,96 28.8071797,96.0301769 28.8071797,96.0905307 L27.6302807,109.018313 L27.6302807,109.172216 C27.6302807,109.226534 27.6091569,109.270291 27.5669093,109.303485 C27.5246616,109.33668 27.4250778,109.374401 27.268158,109.416649 L24.8962538,110.285743 C24.8298647,110.31592 24.7423517,110.347606 24.6337148,110.3808 C24.525078,110.413995 24.4194589,110.430592 24.3168574,110.430592 C24.2323621,110.430592 24.1584287,110.409468 24.0950572,110.367221 C24.0316857,110.324973 24,110.252549 24,110.149947 L24,110.095629 C24.048283,109.486055 24.0950572,108.890062 24.1403226,108.307648 C24.1855879,107.725233 24.233871,107.123204 24.2851717,106.50156 C24.3364724,105.879916 24.3922997,105.22206 24.4526535,104.527991 C24.5130073,103.833923 24.5793964,103.073465 24.651821,102.246618 Z M38.9013519,108.085847 C38.8953165,108.109989 38.8922988,108.132622 38.8922988,108.153745 C38.8922988,108.174869 38.8922988,108.194484 38.8922988,108.21259 C38.8922988,108.363475 38.9164403,108.488709 38.9647234,108.588293 C39.0130064,108.687876 39.065816,108.769354 39.1231521,108.832726 C39.1804882,108.896097 39.2332978,108.947398 39.2815808,108.986628 C39.3298638,109.025858 39.3540053,109.060561 39.3540053,109.090738 C39.3540053,109.175233 39.2634746,109.253693 39.0824133,109.326118 L36.6471377,110.367221 C36.6411023,110.373256 36.6199784,110.376274 36.5837662,110.376274 C36.5354831,110.376274 36.4872001,110.334026 36.4389171,110.249531 C36.390634,110.165036 36.3438598,110.057908 36.2985945,109.928147 C36.2533291,109.798386 36.2110815,109.659573 36.1718515,109.511706 C36.1326216,109.363839 36.0979181,109.226534 36.0677412,109.099791 C35.6875123,109.540374 35.2771065,109.863267 34.8365238,110.06847 C34.3959411,110.273672 33.9583761,110.376274 33.5238288,110.376274 C33.0168569,110.376274 32.5219558,110.264619 32.0391254,110.04131 C31.5562951,109.818001 31.1277831,109.499635 30.7535896,109.086212 C30.3793961,108.672788 30.079136,108.17336 29.8528092,107.587929 C29.6264825,107.002497 29.5133191,106.34464 29.5133191,105.614359 C29.5133191,104.7513 29.6385533,103.963683 29.8890215,103.251508 C30.1394898,102.539334 30.4789798,101.926743 30.9074918,101.413735 C31.3360037,100.900728 31.8354314,100.503902 32.4057747,100.223257 C32.9761181,99.9426116 33.5811649,99.8022891 34.2209151,99.8022891 C34.6735686,99.8022891 35.1020805,99.8943286 35.5064509,100.078408 C35.9108214,100.262487 36.294068,100.499375 36.6561907,100.789074 C36.692403,100.608012 36.7135268,100.463163 36.7195622,100.354526 C36.7255976,100.245889 36.7391772,100.161394 36.760301,100.10104 C36.7814248,100.040687 36.8221637,99.9999477 36.8825175,99.9788239 C36.9428712,99.9577001 37.042455,99.9411028 37.1812687,99.929032 C37.6158161,99.8686782 38.0488545,99.812851 38.4803842,99.7615502 C38.9119138,99.7102495 39.3630584,99.6725284 39.833818,99.6483869 L38.9013519,108.085847 Z M36.1944842,104.67284 C36.254838,104.328824 36.2955768,104.004422 36.3167006,103.699635 C36.3378245,103.394849 36.3544217,103.115712 36.3664925,102.862226 C36.2699264,102.789802 36.1658161,102.71436 36.0541616,102.6359 C35.9425071,102.55744 35.8217995,102.483506 35.6920389,102.4141 C35.5622782,102.344693 35.4264822,102.288865 35.2846507,102.246618 C35.1428193,102.20437 34.9934437,102.183246 34.8365238,102.183246 C34.5106133,102.183246 34.2375124,102.288865 34.0172211,102.500104 C33.7969297,102.711342 33.618886,102.970863 33.48309,103.278668 C33.3472939,103.586472 33.2507279,103.912382 33.1933918,104.256399 C33.1360557,104.600416 33.1073876,104.905202 33.1073876,105.170759 C33.1073876,106.124349 33.2326217,106.822944 33.48309,107.266545 C33.7335582,107.710145 34.0821014,107.931945 34.5287195,107.931945 C34.7097808,107.931945 34.9119661,107.880644 35.1352751,107.778043 C35.3585841,107.675442 35.5849109,107.53361 35.8142553,107.352549 L36.1944842,104.67284 Z M48.9230995,99.7298645 L48.3618092,102.536316 C48.2350662,102.524245 48.0932348,102.510666 47.9363149,102.495577 C47.7793951,102.480489 47.6134221,102.472944 47.4383961,102.472944 C47.1728394,102.472944 46.9027562,102.495577 46.6281464,102.540842 C46.3535367,102.586108 46.0985419,102.67513 45.8631621,102.807908 C45.6277823,102.940686 45.4255971,103.123257 45.2566064,103.355619 C45.0876158,103.587981 44.978979,103.888241 44.930696,104.256399 C44.8884483,104.703017 44.8537449,105.069666 44.8265857,105.356347 C44.7994265,105.643028 44.7798115,105.878407 44.7677407,106.062486 C44.75567,106.246565 44.745108,106.394432 44.736055,106.506087 C44.7270019,106.617741 44.7194577,106.721852 44.7134223,106.818418 C44.7134223,106.842559 44.7088958,106.908948 44.6998427,107.017585 C44.6907896,107.126222 44.67721,107.252965 44.6591039,107.397814 C44.6409977,107.542663 44.6244005,107.699583 44.609312,107.868574 C44.5942236,108.037564 44.5776263,108.194484 44.5595201,108.339333 C44.541414,108.484182 44.5278344,108.610925 44.5187813,108.719562 C44.5097282,108.828199 44.5052017,108.894588 44.5052017,108.91873 C44.5052017,108.967013 44.5067106,109.007752 44.5097282,109.040946 C44.5127459,109.074141 44.5142548,109.105826 44.5142548,109.136003 C44.5142548,109.184286 44.4916221,109.225025 44.4463568,109.25822 C44.4010914,109.291414 44.2999988,109.329136 44.1430789,109.371383 L41.7440156,110.231425 C41.6776264,110.255566 41.5901134,110.285743 41.4814766,110.321955 C41.3728398,110.358168 41.2672206,110.376274 41.1646192,110.376274 C41.0801239,110.376274 41.0061905,110.35515 40.942819,110.312902 C40.8794475,110.270655 40.8477618,110.19823 40.8477618,110.095629 L41.6263257,101.124037 C41.6444318,100.92487 41.6670645,100.787565 41.6942237,100.712123 C41.7213829,100.63668 41.789281,100.586888 41.8979178,100.562747 C42.4471373,100.45411 43.014463,100.343964 43.5998948,100.23231 C44.1853266,100.120655 44.7526523,99.9773151 45.3018718,99.8022891 C45.3501548,99.8022891 45.3788229,99.8098333 45.387876,99.8249217 C45.396929,99.8400102 45.4014556,99.8626429 45.4014556,99.8928198 C45.4014556,99.9048905 45.3999467,99.9229966 45.396929,99.9471382 C45.3939113,99.9712797 45.3848583,100.025598 45.3697698,100.110093 C45.3546814,100.194589 45.3335575,100.322841 45.3063983,100.494849 C45.2792391,100.666857 45.241518,100.906763 45.193235,101.214568 C45.4708624,100.997294 45.7771579,100.798127 46.1121215,100.617065 C46.447085,100.436004 46.7835575,100.280593 47.1215387,100.150832 C47.45952,100.021072 47.7854304,99.9184701 48.0992702,99.8430279 C48.4131099,99.7675856 48.6877197,99.7298645 48.9230995,99.7298645 Z M59.1621207,99.6483869 L58.2296546,108.085847 C58.2236192,108.109989 58.2206015,108.132622 58.2206015,108.153745 L58.2206015,108.21259 C58.2206015,108.363475 58.244743,108.488709 58.2930261,108.588293 C58.3413091,108.687876 58.3941187,108.769354 58.4514548,108.832726 C58.5087909,108.896097 58.5616005,108.947398 58.6098835,108.986628 C58.6581665,109.025858 58.6823081,109.060561 58.6823081,109.090738 C58.6823081,109.175233 58.5917774,109.253693 58.410716,109.326118 L55.9754404,110.367221 C55.969405,110.373256 55.9482812,110.376274 55.9120689,110.376274 C55.8637858,110.376274 55.8155028,110.334026 55.7672198,110.249531 C55.7189367,110.165036 55.6721625,110.057908 55.6268972,109.928147 C55.5816319,109.798386 55.5393842,109.659573 55.5001542,109.511706 C55.4609243,109.363839 55.4262208,109.226534 55.3960439,109.099791 C55.015815,109.540374 54.6054092,109.863267 54.1648265,110.06847 C53.7242438,110.273672 53.2866788,110.376274 52.8521315,110.376274 C52.3451596,110.376274 51.8502585,110.264619 51.3674282,110.04131 C50.8845978,109.818001 50.4560859,109.499635 50.0818923,109.086212 C49.7076988,108.672788 49.4074387,108.17336 49.1811119,107.587929 C48.9547852,107.002497 48.8416218,106.34464 48.8416218,105.614359 C48.8416218,104.7513 48.966856,103.963683 49.2173242,103.251508 C49.4677925,102.539334 49.8072826,101.926743 50.2357945,101.413735 C50.6643064,100.900728 51.1637341,100.503902 51.7340775,100.223257 C52.3044208,99.9426116 52.9094676,99.8022891 53.5492178,99.8022891 C54.0018713,99.8022891 54.4303832,99.8943286 54.8347536,100.078408 C55.2391241,100.262487 55.6223707,100.499375 55.9844934,100.789074 C56.0207057,100.608012 56.0418295,100.463163 56.0478649,100.354526 C56.0539003,100.245889 56.0674799,100.161394 56.0886037,100.10104 C56.1097276,100.040687 56.1504664,99.9999477 56.2108202,99.9788239 C56.271174,99.9577001 56.3707577,99.9411028 56.5095714,99.929032 C56.9441188,99.8686782 57.3771572,99.812851 57.8086869,99.7615502 C58.2402165,99.7102495 58.6913611,99.6725284 59.1621207,99.6483869 Z M54.1648265,102.183246 C53.838916,102.183246 53.5658151,102.288865 53.3455238,102.500104 C53.1252324,102.711342 52.9471887,102.970863 52.8113927,103.278668 C52.6755966,103.586472 52.5790306,103.912382 52.5216945,104.256399 C52.4643584,104.600416 52.4356903,104.905202 52.4356903,105.170759 C52.4356903,106.124349 52.5609244,106.822944 52.8113927,107.266545 C53.0618609,107.710145 53.4104041,107.931945 53.8570222,107.931945 C54.0380836,107.931945 54.2402688,107.880644 54.4635778,107.778043 C54.6868869,107.675442 54.9132136,107.53361 55.142558,107.352549 L55.5227869,104.67284 C55.5831407,104.328824 55.6238795,104.004422 55.6450033,103.699635 C55.6661272,103.394849 55.6827245,103.115712 55.6947952,102.862226 C55.5982291,102.789802 55.4941189,102.71436 55.3824643,102.6359 C55.2708098,102.55744 55.1501022,102.483506 55.0203416,102.4141 C54.8905809,102.344693 54.7547849,102.288865 54.6129535,102.246618 C54.471122,102.20437 54.3217464,102.183246 54.1648265,102.183246 Z M64.3314232,103.586472 C64.2952109,104.165868 64.2635252,104.636628 64.236366,104.998751 C64.2092068,105.360874 64.1865741,105.655098 64.168468,105.881425 C64.1503618,106.107752 64.1352734,106.285795 64.1232026,106.415556 C64.1111319,106.545317 64.1020788,106.667533 64.0960434,106.782205 C64.2348572,107.144328 64.4400601,107.438553 64.7116521,107.66488 C64.9832442,107.891206 65.3091547,108.00437 65.6893836,108.00437 C66.0213295,108.00437 66.3125365,107.900259 66.5630048,107.692039 C66.813473,107.483818 67.0216936,107.213735 67.1876666,106.881789 C67.3536395,106.549843 67.4788736,106.178667 67.5633689,105.768262 C67.6478642,105.357856 67.6901119,104.950468 67.6901119,104.546097 C67.6901119,104.214151 67.6614438,103.906347 67.6041077,103.622684 C67.5467716,103.339021 67.4607675,103.09308 67.3460953,102.884859 C67.2314231,102.676639 67.0880828,102.513683 66.9160745,102.395993 C66.7440662,102.278303 66.5403721,102.219459 66.3049923,102.219459 C66.1118602,102.219459 65.9202369,102.25718 65.7301224,102.332622 C65.540008,102.408064 65.3574377,102.50463 65.1824117,102.62232 C65.0073857,102.74001 64.848957,102.872788 64.7071256,103.020655 C64.5652942,103.168522 64.4491131,103.311862 64.3585824,103.450676 L64.3314232,103.586472 Z M64.5124846,100.933923 C65.0194565,100.589906 65.5505699,100.315296 66.1058248,100.110093 C66.6610797,99.9048905 67.2404761,99.8022891 67.8440141,99.8022891 C68.4113397,99.8022891 68.9017143,99.9184701 69.3151378,100.150832 C69.7285613,100.383194 70.0710691,100.697034 70.3426612,101.092351 C70.6142532,101.487669 70.8149296,101.941831 70.9446903,102.454838 C71.0744509,102.967846 71.1393313,103.504994 71.1393313,104.066285 C71.1393313,104.55515 71.0910482,105.050051 70.9944821,105.550988 C70.8979161,106.051924 70.7560847,106.536264 70.5689879,107.004006 C70.3818911,107.471748 70.149529,107.910821 69.8719016,108.321227 C69.5942741,108.731633 69.2759078,109.089229 68.9168028,109.394016 C68.5576977,109.698803 68.1578538,109.938709 67.7172711,110.113735 C67.2766884,110.288761 66.7998934,110.376274 66.2868862,110.376274 C65.8342327,110.376274 65.4011942,110.285743 64.9877707,110.104682 C64.5743472,109.92362 64.1865741,109.688241 63.8244514,109.398542 C63.8244514,109.428719 63.8169071,109.538865 63.8018187,109.728979 C63.7867302,109.919094 63.7671152,110.149947 63.7429737,110.421539 C63.7188322,110.693131 63.691673,110.984338 63.6614961,111.29516 C63.6313192,111.605982 63.60416,111.897189 63.5800185,112.168782 C63.555877,112.440374 63.536262,112.671227 63.5211735,112.861341 C63.5060851,113.051456 63.4985409,113.161601 63.4985409,113.191778 C63.4985409,113.240061 63.5000497,113.2808 63.5030674,113.313995 C63.5060851,113.347189 63.5075939,113.378875 63.5075939,113.409052 C63.5075939,113.457335 63.4849613,113.498074 63.4396959,113.531268 C63.3944306,113.564463 63.293338,113.602184 63.1364181,113.644432 L60.7554609,114.250987 C60.6890717,114.269094 60.6015587,114.297762 60.4929219,114.336992 C60.3842851,114.376222 60.2786659,114.395837 60.1760645,114.395837 C60.0915692,114.395837 60.0176358,114.374713 59.9542643,114.332465 C59.8908928,114.290217 59.859207,114.211758 59.859207,114.097085 L60.9636815,100.843392 C60.9817876,100.644224 61.0044203,100.50692 61.0315795,100.431477 C61.0587387,100.356035 61.1266367,100.306243 61.2352736,100.282102 C61.7844931,100.173465 62.3488011,100.063319 62.9281975,99.9516647 C63.5075939,99.8400102 64.0719019,99.6966699 64.6211214,99.5216439 C64.6694045,99.5216439 64.6980725,99.5291881 64.7071256,99.5442766 C64.7161787,99.559365 64.7207052,99.5819977 64.7207052,99.6121746 C64.7207052,99.6242454 64.7191964,99.6423515 64.7161787,99.666493 C64.713161,99.6906345 64.7041079,99.744953 64.6890195,99.8294483 C64.673931,99.9139436 64.6528072,100.042195 64.625648,100.214204 C64.5984888,100.386212 64.5607676,100.626118 64.5124846,100.933923 Z M77.6756472,99.8022891 C78.2490083,99.8022891 78.7695597,99.909417 79.2373016,100.123673 C79.7050435,100.337929 80.1063963,100.615556 80.4413598,100.956555 C80.7763234,101.297554 81.0343359,101.679292 81.2153973,102.101769 C81.3964586,102.524245 81.4869893,102.946722 81.4869893,103.369198 C81.4869893,103.743392 81.3723171,104.119094 81.1429727,104.496305 C80.9136283,104.873517 80.5922443,105.213007 80.1788208,105.514776 C79.7653973,105.816545 79.2689874,106.060978 78.689591,106.248074 C78.1101945,106.435171 77.473462,106.528719 76.7793934,106.528719 C76.4172706,106.528719 76.0370417,106.492507 75.6387066,106.420083 C75.6628482,106.679604 75.7382904,106.902913 75.8650334,107.09001 C75.9917763,107.277107 76.1517139,107.431009 76.344846,107.551716 C76.5379782,107.672424 76.7567607,107.761446 77.0011936,107.818782 C77.2456264,107.876118 77.4976035,107.904786 77.7571248,107.904786 C78.046823,107.904786 78.3259593,107.879136 78.5945337,107.827835 C78.8631081,107.776534 79.1211206,107.708636 79.3685711,107.624141 C79.6160217,107.539646 79.8544192,107.446097 80.0837636,107.343496 C80.313108,107.240894 80.5303817,107.138293 80.7355846,107.035691 C80.789903,107.023621 80.8366772,107.013059 80.8759072,107.004006 C80.9151371,106.994953 80.9528583,106.990426 80.9890705,106.990426 C80.9890705,106.990426 80.9875617,107.038709 80.984544,107.135275 C80.9815263,107.231841 80.9800175,107.367637 80.9800175,107.542663 C80.9800175,107.717689 80.9785086,107.928927 80.9754909,108.176378 C80.9724732,108.423829 80.9679467,108.698438 80.9619113,109.000207 C80.9800175,109.030384 80.9920882,109.060561 80.9981236,109.090738 C81.004159,109.120915 81.0071767,109.145056 81.0071767,109.163163 C81.0071767,109.235587 80.9407875,109.314047 80.8080091,109.398542 C80.6752308,109.483038 80.5017136,109.570551 80.2874577,109.661081 C80.0732017,109.751612 79.8287688,109.839125 79.5541591,109.92362 C79.2795493,110.008116 79.000413,110.085067 78.7167502,110.154474 C78.4330873,110.223881 78.1584776,110.278199 77.8929209,110.317429 C77.6273642,110.356659 77.3950021,110.376274 77.1958345,110.376274 C76.5440136,110.376274 75.9118076,110.263111 75.2992165,110.036784 C74.6866255,109.810457 74.1434414,109.486055 73.6696641,109.063579 C73.1958868,108.641102 72.8171667,108.128095 72.5335039,107.524557 C72.2498411,106.921019 72.1080097,106.242039 72.1080097,105.487617 C72.1080097,104.696982 72.2438057,103.956139 72.5153978,103.265088 C72.7869898,102.574037 73.1687276,101.972008 73.660611,101.459001 C74.1524944,100.945993 74.7394351,100.541623 75.421433,100.245889 C76.1034309,99.9501559 76.8548356,99.8022891 77.6756472,99.8022891 Z M77.5670104,102.210405 C77.3195598,102.210405 77.0917242,102.263215 76.8835037,102.368834 C76.6752831,102.474453 76.4851686,102.625338 76.3131603,102.821488 C76.141152,103.017637 75.9917763,103.253017 75.8650334,103.527627 C75.7382904,103.802237 75.6356889,104.105515 75.557229,104.43746 C76.1788731,104.328824 76.694898,104.214151 77.1053038,104.093444 C77.5157096,103.972736 77.8446378,103.85052 78.0920884,103.726795 C78.3395389,103.603069 78.514565,103.479344 78.6171664,103.355619 C78.7197679,103.231893 78.7710686,103.112695 78.7710686,102.998022 C78.7710686,102.889386 78.7303298,102.786784 78.6488521,102.690218 C78.5673745,102.593652 78.4662819,102.509157 78.3455743,102.436732 C78.2248667,102.364308 78.0935972,102.30848 77.9517658,102.26925 C77.8099344,102.23002 77.6816826,102.210405 77.5670104,102.210405 Z M88.0142522,99.8022891 C88.5876133,99.8022891 89.1081647,99.909417 89.5759067,100.123673 C90.0436486,100.337929 90.4450013,100.615556 90.7799649,100.956555 C91.1149284,101.297554 91.3729409,101.679292 91.5540023,102.101769 C91.7350637,102.524245 91.8255943,102.946722 91.8255943,103.369198 C91.8255943,103.743392 91.7109221,104.119094 91.4815777,104.496305 C91.2522333,104.873517 90.9308493,105.213007 90.5174258,105.514776 C90.1040024,105.816545 89.6075924,106.060978 89.028196,106.248074 C88.4487995,106.435171 87.812067,106.528719 87.1179984,106.528719 C86.7558756,106.528719 86.3756467,106.492507 85.9773116,106.420083 C86.0014532,106.679604 86.0768954,106.902913 86.2036384,107.09001 C86.3303813,107.277107 86.4903189,107.431009 86.683451,107.551716 C86.8765832,107.672424 87.0953657,107.761446 87.3397986,107.818782 C87.5842314,107.876118 87.8362085,107.904786 88.0957298,107.904786 C88.3854281,107.904786 88.6645644,107.879136 88.9331387,107.827835 C89.2017131,107.776534 89.4597256,107.708636 89.7071762,107.624141 C89.9546267,107.539646 90.1930242,107.446097 90.4223686,107.343496 C90.651713,107.240894 90.8689867,107.138293 91.0741896,107.035691 C91.128508,107.023621 91.1752822,107.013059 91.2145122,107.004006 C91.2537421,106.994953 91.2914633,106.990426 91.3276755,106.990426 C91.3276755,106.990426 91.3261667,107.038709 91.323149,107.135275 C91.3201313,107.231841 91.3186225,107.367637 91.3186225,107.542663 C91.3186225,107.717689 91.3171136,107.928927 91.3140959,108.176378 C91.3110782,108.423829 91.3065517,108.698438 91.3005163,109.000207 C91.3186225,109.030384 91.3306932,109.060561 91.3367286,109.090738 C91.342764,109.120915 91.3457817,109.145056 91.3457817,109.163163 C91.3457817,109.235587 91.2793925,109.314047 91.1466142,109.398542 C91.0138358,109.483038 90.8403186,109.570551 90.6260627,109.661081 C90.4118067,109.751612 90.1673738,109.839125 89.8927641,109.92362 C89.6181543,110.008116 89.339018,110.085067 89.0553552,110.154474 C88.7716923,110.223881 88.4970826,110.278199 88.2315259,110.317429 C87.9659692,110.356659 87.7336071,110.376274 87.5344395,110.376274 C86.8826186,110.376274 86.2504126,110.263111 85.6378216,110.036784 C85.0252305,109.810457 84.4820464,109.486055 84.0082691,109.063579 C83.5344918,108.641102 83.1557718,108.128095 82.8721089,107.524557 C82.5884461,106.921019 82.4466147,106.242039 82.4466147,105.487617 C82.4466147,104.696982 82.5824107,103.956139 82.8540028,103.265088 C83.1255949,102.574037 83.5073326,101.972008 83.999216,101.459001 C84.4910995,100.945993 85.0780401,100.541623 85.760038,100.245889 C86.4420359,99.9501559 87.1934406,99.8022891 88.0142522,99.8022891 Z M87.9056154,102.210405 C87.6581648,102.210405 87.4303293,102.263215 87.2221087,102.368834 C87.0138881,102.474453 86.8237736,102.625338 86.6517653,102.821488 C86.479757,103.017637 86.3303813,103.253017 86.2036384,103.527627 C86.0768954,103.802237 85.974294,104.105515 85.895834,104.43746 C86.5174781,104.328824 87.0335031,104.214151 87.4439089,104.093444 C87.8543147,103.972736 88.1832428,103.85052 88.4306934,103.726795 C88.678144,103.603069 88.85317,103.479344 88.9557714,103.355619 C89.0583729,103.231893 89.1096736,103.112695 89.1096736,102.998022 C89.1096736,102.889386 89.0689348,102.786784 88.9874572,102.690218 C88.9059795,102.593652 88.8048869,102.509157 88.6841793,102.436732 C88.5634717,102.364308 88.4322022,102.30848 88.2903708,102.26925 C88.1485394,102.23002 88.0202876,102.210405 87.9056154,102.210405 Z M97.0039499,103.586472 C96.9677376,104.165868 96.9360519,104.636628 96.9088927,104.998751 C96.8817335,105.360874 96.8591008,105.655098 96.8409947,105.881425 C96.8228885,106.107752 96.8078001,106.285795 96.7957293,106.415556 C96.7836586,106.545317 96.7746055,106.667533 96.7685701,106.782205 C96.9073838,107.144328 97.1125867,107.438553 97.3841788,107.66488 C97.6557709,107.891206 97.9816814,108.00437 98.3619103,108.00437 C98.6938562,108.00437 98.9850632,107.900259 99.2355315,107.692039 C99.4859997,107.483818 99.6942203,107.213735 99.8601932,106.881789 C100.026166,106.549843 100.1514,106.178667 100.235896,105.768262 C100.320391,105.357856 100.362639,104.950468 100.362639,104.546097 C100.362639,104.214151 100.333971,103.906347 100.276634,103.622684 C100.219298,103.339021 100.133294,103.09308 100.018622,102.884859 C99.9039497,102.676639 99.7606095,102.513683 99.5886012,102.395993 C99.4165929,102.278303 99.2128988,102.219459 98.977519,102.219459 C98.7843869,102.219459 98.5927636,102.25718 98.4026491,102.332622 C98.2125347,102.408064 98.0299644,102.50463 97.8549384,102.62232 C97.6799124,102.74001 97.5214837,102.872788 97.3796523,103.020655 C97.2378209,103.168522 97.1216398,103.311862 97.0311091,103.450676 L97.0039499,103.586472 Z M97.1850113,100.933923 C97.6919832,100.589906 98.2230966,100.315296 98.7783515,100.110093 C99.3336064,99.9048905 99.9130028,99.8022891 100.516541,99.8022891 C101.083866,99.8022891 101.574241,99.9184701 101.987665,100.150832 C102.401088,100.383194 102.743596,100.697034 103.015188,101.092351 C103.28678,101.487669 103.487456,101.941831 103.617217,102.454838 C103.746978,102.967846 103.811858,103.504994 103.811858,104.066285 C103.811858,104.55515 103.763575,105.050051 103.667009,105.550988 C103.570443,106.051924 103.428611,106.536264 103.241515,107.004006 C103.054418,107.471748 102.822056,107.910821 102.544428,108.321227 C102.266801,108.731633 101.948435,109.089229 101.589329,109.394016 C101.230224,109.698803 100.83038,109.938709 100.389798,110.113735 C99.9492151,110.288761 99.4724201,110.376274 98.9594129,110.376274 C98.5067594,110.376274 98.0737209,110.285743 97.6602974,110.104682 C97.2468739,109.92362 96.8591008,109.688241 96.496978,109.398542 C96.496978,109.428719 96.4894338,109.538865 96.4743454,109.728979 C96.4592569,109.919094 96.4396419,110.149947 96.4155004,110.421539 C96.3913589,110.693131 96.3641997,110.984338 96.3340228,111.29516 C96.3038459,111.605982 96.2766867,111.897189 96.2525452,112.168782 C96.2284037,112.440374 96.2087887,112.671227 96.1937002,112.861341 C96.1786118,113.051456 96.1710676,113.161601 96.1710676,113.191778 C96.1710676,113.240061 96.1725764,113.2808 96.1755941,113.313995 C96.1786118,113.347189 96.1801206,113.378875 96.1801206,113.409052 C96.1801206,113.457335 96.1574879,113.498074 96.1122226,113.531268 C96.0669573,113.564463 95.9658647,113.602184 95.8089448,113.644432 L93.4279876,114.250987 C93.3615984,114.269094 93.2740854,114.297762 93.1654486,114.336992 C93.0568118,114.376222 92.9511926,114.395837 92.8485912,114.395837 C92.7640958,114.395837 92.6901625,114.374713 92.626791,114.332465 C92.5634195,114.290217 92.5317337,114.211758 92.5317337,114.097085 L93.6362082,100.843392 C93.6543143,100.644224 93.676947,100.50692 93.7041062,100.431477 C93.7312654,100.356035 93.7991634,100.306243 93.9078003,100.282102 C94.4570198,100.173465 95.0213278,100.063319 95.6007242,99.9516647 C96.1801206,99.8400102 96.7444286,99.6966699 97.2936481,99.5216439 C97.3419312,99.5216439 97.3705992,99.5291881 97.3796523,99.5442766 C97.3887054,99.559365 97.3932319,99.5819977 97.3932319,99.6121746 C97.3932319,99.6242454 97.391723,99.6423515 97.3887054,99.666493 C97.3856877,99.6906345 97.3766346,99.744953 97.3615462,99.8294483 C97.3464577,99.9139436 97.3253339,100.042195 97.2981747,100.214204 C97.2710155,100.386212 97.2332943,100.626118 97.1850113,100.933923 Z M104.99781,107.406867 C104.99781,107.400832 104.996301,107.396305 104.993283,107.393288 C104.990266,107.39027 104.988757,107.385743 104.988757,107.379708 C104.988757,107.301248 105.031005,107.262018 105.1155,107.262018 C105.169818,107.262018 105.218101,107.283142 105.260349,107.32539 C105.501764,107.554734 105.777883,107.741831 106.088705,107.88668 C106.399527,108.031529 106.735999,108.103954 107.098122,108.103954 C107.194688,108.103954 107.306343,108.093392 107.433086,108.072268 C107.559829,108.051144 107.680536,108.01644 107.795208,107.968157 C107.909881,107.919874 108.004938,107.854994 108.08038,107.773516 C108.155822,107.692039 108.193543,107.590946 108.193543,107.470239 C108.193543,107.33746 108.160349,107.215244 108.09396,107.103589 C108.02757,106.991935 107.940057,106.899895 107.831421,106.827471 C107.771067,106.785223 107.665448,106.71129 107.514563,106.605671 C107.363679,106.500051 107.202232,106.386888 107.030224,106.26618 C106.858216,106.145473 106.69526,106.030801 106.541358,105.922164 C106.387456,105.813527 106.280328,105.735067 106.219974,105.686784 C105.948382,105.481581 105.732617,105.273361 105.57268,105.062122 C105.412742,104.850884 105.290526,104.632101 105.206031,104.405775 C105.121535,104.179448 105.067217,103.942559 105.043075,103.695109 C105.018934,103.447658 105.006863,103.185119 105.006863,102.907492 C105.006863,102.485015 105.118518,102.08668 105.341827,101.712487 C105.565136,101.338293 105.85936,101.009365 106.224501,100.725702 C106.589641,100.442039 107.004574,100.217221 107.469298,100.051248 C107.934022,99.8852755 108.407799,99.8022891 108.89063,99.8022891 C109.288965,99.8022891 109.681264,99.8626429 110.067529,99.9833504 C110.453793,100.104058 110.812898,100.309261 111.144844,100.598959 C111.175021,100.979188 111.196145,101.353382 111.208215,101.72154 C111.220286,102.089698 111.238392,102.475962 111.262534,102.880333 C111.262534,102.958793 111.244428,103.011602 111.208215,103.038761 C111.172003,103.06592 111.129756,103.0795 111.081473,103.0795 C111.039225,103.0795 111.003013,103.064412 110.972836,103.034235 C110.834022,102.901456 110.692191,102.770187 110.547341,102.640426 C110.402492,102.510666 110.250099,102.395993 110.090161,102.29641 C109.930224,102.196826 109.759724,102.115348 109.578663,102.051977 C109.397602,101.988605 109.204469,101.95692 108.999267,101.95692 C108.872524,101.95692 108.745781,101.967481 108.619038,101.988605 C108.492295,102.009729 108.377623,102.048959 108.275021,102.106295 C108.17242,102.163631 108.089433,102.240582 108.026062,102.337148 C107.96269,102.433715 107.931004,102.55744 107.931004,102.708324 C107.931004,102.88335 107.952128,103.034235 107.994376,103.160978 C108.036624,103.287721 108.136207,103.411446 108.293127,103.532154 L109.976998,104.67284 C110.284802,104.884079 110.533762,105.09079 110.723876,105.292976 C110.913991,105.495161 111.063366,105.695837 111.172003,105.895005 C111.28064,106.094172 111.354573,106.291831 111.393803,106.487981 C111.433033,106.68413 111.452648,106.878771 111.452648,107.071904 C111.452648,107.615088 111.327414,108.093392 111.076946,108.506815 C110.826478,108.920239 110.502076,109.264255 110.103741,109.538865 C109.705406,109.813475 109.254261,110.021695 108.750307,110.163527 C108.246353,110.305358 107.74089,110.376274 107.233918,110.376274 C106.847654,110.376274 106.474969,110.335535 106.115864,110.254057 C105.756759,110.17258 105.423304,110.047346 105.1155,109.878355 L104.99781,107.406867 Z M112.475645,110.249531 C112.487716,109.965868 112.496769,109.74105 112.502804,109.575077 C112.50884,109.409104 112.513366,109.280852 112.516384,109.190322 C112.519402,109.099791 112.520911,109.03642 112.520911,109.000207 C112.520911,108.963995 112.520911,108.929292 112.520911,108.896097 C112.520911,108.862902 112.522419,108.822164 112.525437,108.773881 C112.528455,108.725598 112.532981,108.645629 112.539017,108.533974 C112.545052,108.42232 112.554105,108.268418 112.566176,108.072268 C112.578247,107.876118 112.593335,107.615088 112.611441,107.289177 C112.623512,107.09001 112.643127,106.952705 112.670286,106.877263 C112.697445,106.80182 112.765343,106.755046 112.87398,106.73694 C113.405094,106.73694 113.960349,106.735431 114.539745,106.732414 C115.119141,106.729396 115.665343,106.724869 116.17835,106.718834 C116.232669,106.718834 116.277934,106.733922 116.314146,106.764099 C116.350359,106.794276 116.368465,106.851612 116.368465,106.936108 L116.114979,109.778771 C116.090837,109.977939 116.068205,110.115244 116.047081,110.190686 C116.025957,110.266128 115.958059,110.309885 115.843387,110.321955 C115.33038,110.327991 114.803793,110.334026 114.263626,110.340062 C113.72346,110.346097 113.160661,110.349115 112.575229,110.349115 C112.539017,110.349115 112.513366,110.346097 112.498278,110.340062 C112.483189,110.334026 112.475645,110.31592 112.475645,110.285743 L112.475645,110.249531 Z M117.753584,105.487617 C117.753584,104.696982 117.899942,103.956139 118.192658,103.265088 C118.485374,102.574037 118.889745,101.972008 119.40577,101.459001 C119.921795,100.945993 120.531368,100.541623 121.23449,100.245889 C121.937611,99.9501559 122.702596,99.8022891 123.529443,99.8022891 C124.090733,99.8022891 124.570546,99.8475544 124.968881,99.9380851 C125.367216,100.028616 125.693126,100.129708 125.946612,100.241363 C126.200098,100.353017 126.385686,100.455619 126.503376,100.549167 C126.621066,100.642716 126.679911,100.692508 126.679911,100.698543 C126.679911,100.734755 126.666331,100.835848 126.639172,101.001821 C126.612013,101.167794 126.581836,101.360926 126.548641,101.581217 C126.515447,101.801509 126.48527,102.027835 126.458111,102.260197 C126.430951,102.492559 126.417372,102.693236 126.417372,102.862226 C126.417372,102.892403 126.408319,102.925598 126.390212,102.96181 C126.372106,102.998022 126.323823,103.016129 126.245363,103.016129 C126.172939,103.016129 126.06732,102.990478 125.928506,102.939178 C125.789692,102.887877 125.619193,102.83205 125.417008,102.771696 C125.214822,102.711342 124.98246,102.655515 124.719921,102.604214 C124.457382,102.552913 124.166175,102.527263 123.8463,102.527263 C123.447965,102.527263 123.08886,102.598179 122.768985,102.74001 C122.44911,102.881841 122.1745,103.077991 121.945156,103.32846 C121.715811,103.578928 121.539276,103.87617 121.415551,104.220187 C121.291826,104.564203 121.229963,104.935379 121.229963,105.333714 C121.229963,105.750156 121.294843,106.104734 121.424604,106.39745 C121.554365,106.690166 121.727882,106.928563 121.945156,107.112642 C122.162429,107.296721 122.412897,107.431009 122.69656,107.515504 C122.980223,107.599999 123.278974,107.642247 123.592814,107.642247 C123.954937,107.642247 124.320077,107.592455 124.688235,107.492871 C125.056394,107.393288 125.403428,107.252965 125.729338,107.071904 C125.741409,107.065868 125.765551,107.062851 125.801763,107.062851 C125.83194,107.062851 125.854573,107.077939 125.869661,107.108116 C125.884749,107.138293 125.892294,107.195629 125.892294,107.280124 C125.892294,107.473256 125.892294,107.707127 125.892294,107.981737 C125.892294,108.256347 125.890785,108.518886 125.887767,108.769354 C125.884749,109.019822 125.880223,109.232569 125.874188,109.407595 C125.868152,109.582621 125.862117,109.670134 125.856081,109.670134 C125.638808,109.814984 125.403428,109.932673 125.149942,110.023204 C124.896456,110.113735 124.635426,110.186159 124.366852,110.240478 C124.098277,110.294796 123.828194,110.331009 123.556602,110.349115 C123.28501,110.367221 123.022471,110.376274 122.768985,110.376274 C122.062845,110.376274 121.404989,110.258584 120.795416,110.023204 C120.185842,109.787824 119.656238,109.455879 119.206602,109.027367 C118.756966,108.598855 118.402388,108.084339 118.142866,107.483818 C117.883345,106.883298 117.753584,106.217897 117.753584,105.487617 Z M132.31092,110.376274 C131.459931,110.376274 130.713053,110.23746 130.070285,109.959833 C129.427517,109.682205 128.88886,109.312538 128.454312,108.850832 C128.019765,108.389125 127.693854,107.858012 127.476581,107.257492 C127.259307,106.656971 127.15067,106.033818 127.15067,105.388033 C127.15067,104.742247 127.256289,104.128147 127.467528,103.545733 C127.678766,102.963319 127.9745,102.441259 128.354729,101.979552 C128.734957,101.517846 129.190629,101.131581 129.721742,100.820759 C130.252855,100.509937 130.838287,100.300208 131.478037,100.191571 C131.574603,100.185536 131.622886,100.164412 131.622886,100.1282 C131.622886,100.06181 131.615342,99.9999477 131.600254,99.9426116 C131.585165,99.8852755 131.577621,99.8354836 131.577621,99.793236 C131.577621,99.7268468 131.589692,99.6815815 131.613833,99.65744 C131.637975,99.6332984 131.665134,99.6212277 131.695311,99.6212277 C132.848069,99.6212277 133.828818,99.7524972 134.637559,100.015036 C135.446299,100.277575 136.104156,100.635171 136.611128,101.087825 C137.118099,101.540478 137.486258,102.074609 137.715602,102.690218 C137.944946,103.305827 138.059619,103.966701 138.059619,104.67284 C138.059619,105.572112 137.908734,106.374817 137.606965,107.080957 C137.305196,107.787096 136.893282,108.384599 136.371221,108.873464 C135.849161,109.36233 135.239588,109.735015 134.542501,109.991518 C133.845415,110.248022 133.101554,110.376274 132.31092,110.376274 Z M130.636102,105.288449 C130.636102,105.614359 130.670805,105.937252 130.740212,106.257127 C130.809619,106.577002 130.924291,106.866701 131.084229,107.126222 C131.244166,107.385743 131.453896,107.595473 131.713417,107.75541 C131.972938,107.915348 132.295831,107.995317 132.682096,107.995317 C132.959723,107.983246 133.202647,107.921383 133.410868,107.809729 C133.619088,107.698074 133.798641,107.553225 133.949525,107.375181 C134.10041,107.197138 134.225644,106.996461 134.325228,106.773152 C134.424811,106.549843 134.503271,106.31899 134.560607,106.080593 C134.617944,105.842195 134.658682,105.608324 134.682824,105.37898 C134.706965,105.149635 134.719036,104.941415 134.719036,104.754318 C134.719036,104.440478 134.672262,104.132674 134.578714,103.830905 C134.485165,103.529136 134.34786,103.263579 134.166799,103.034235 C133.985738,102.80489 133.76092,102.619302 133.492345,102.477471 C133.223771,102.33564 132.914458,102.264724 132.564406,102.264724 C132.202283,102.264724 131.897496,102.371852 131.650046,102.586108 C131.402595,102.800364 131.204936,103.064412 131.05707,103.378251 C130.909203,103.692091 130.802075,104.022528 130.735686,104.369562 C130.669297,104.716597 130.636102,105.022892 130.636102,105.288449 Z M152.390627,110.231425 C152.324238,110.249531 152.236725,110.278199 152.128088,110.317429 C152.019451,110.356659 151.913832,110.376274 151.811231,110.376274 C151.726735,110.376274 151.652802,110.35515 151.589431,110.312902 C151.526059,110.270655 151.494373,110.19823 151.494373,110.095629 L151.494373,110.04131 C151.536621,109.600728 151.572833,109.243131 151.60301,108.968522 C151.633187,108.693912 151.657329,108.472112 151.675435,108.303121 C151.693541,108.13413 151.708629,108.005879 151.7207,107.918366 C151.732771,107.830853 151.744842,107.749375 151.756912,107.673933 C151.768983,107.59849 151.779545,107.515504 151.788598,107.424973 C151.797651,107.334443 151.811231,107.206191 151.829337,107.040218 C151.847443,106.874245 151.870076,106.653954 151.897235,106.379344 C151.924394,106.104734 151.959098,105.74412 152.001345,105.297502 C152.025487,105.056087 152.051137,104.816181 152.078296,104.577783 C152.105456,104.339386 152.119035,104.120603 152.119035,103.921436 C152.119035,103.66795 152.105456,103.437096 152.078296,103.228876 C152.051137,103.020655 152.002854,102.842611 151.933447,102.694745 C151.86404,102.546878 151.768983,102.430697 151.648276,102.346201 C151.527568,102.261706 151.373666,102.219459 151.186569,102.219459 C151.071897,102.219459 150.922521,102.2436 150.738442,102.291883 C150.554363,102.340166 150.368775,102.42617 150.181678,102.549896 C149.994582,102.673621 149.825591,102.836576 149.674706,103.038761 C149.523822,103.240947 149.427256,103.495941 149.385008,103.803746 L149.385008,103.839958 C149.312584,104.527991 149.247703,105.123985 149.190367,105.627939 C149.133031,106.131893 149.083239,106.564932 149.040992,106.927055 C148.998744,107.289177 148.964041,107.590946 148.936881,107.832361 C148.909722,108.073777 148.887089,108.277471 148.868983,108.443444 C148.850877,108.609417 148.837298,108.746721 148.828244,108.855358 C148.819191,108.963995 148.814665,109.066597 148.814665,109.163163 C148.814665,109.211446 148.816174,109.252184 148.819191,109.285379 C148.822209,109.318574 148.823718,109.347242 148.823718,109.371383 C148.823718,109.419666 148.801085,109.460405 148.75582,109.4936 C148.710555,109.526794 148.609462,109.567533 148.452542,109.615816 L146.325071,110.231425 C146.258682,110.249531 146.171169,110.278199 146.062532,110.317429 C145.953895,110.356659 145.848276,110.376274 145.745674,110.376274 C145.661179,110.376274 145.587246,110.35515 145.523874,110.312902 C145.460503,110.270655 145.428817,110.19823 145.428817,110.095629 L145.428817,110.04131 C145.471065,109.600728 145.505768,109.243131 145.532927,108.968522 C145.560086,108.693912 145.584228,108.472112 145.605352,108.303121 C145.626476,108.13413 145.643073,108.005879 145.655144,107.918366 C145.667214,107.830853 145.677776,107.749375 145.686829,107.673933 C145.695883,107.59849 145.706444,107.515504 145.718515,107.424973 C145.730586,107.334443 145.744166,107.206191 145.759254,107.040218 C145.774342,106.874245 145.795466,106.653954 145.822626,106.379344 C145.849785,106.104734 145.884488,105.74412 145.926736,105.297502 C145.950877,105.056087 145.976528,104.816181 146.003687,104.577783 C146.030846,104.339386 146.044426,104.120603 146.044426,103.921436 C146.044426,103.66795 146.032355,103.437096 146.008213,103.228876 C145.984072,103.020655 145.940315,102.842611 145.876944,102.694745 C145.813572,102.546878 145.727568,102.430697 145.618931,102.346201 C145.510295,102.261706 145.371481,102.219459 145.20249,102.219459 C145.081783,102.219459 144.917319,102.249635 144.709098,102.309989 C144.500877,102.370343 144.292657,102.469927 144.084436,102.608741 C143.876216,102.747554 143.692137,102.930124 143.532199,103.156451 C143.372261,103.382778 143.280222,103.661914 143.25608,103.99386 C143.207797,104.440478 143.168567,104.807127 143.13839,105.093808 C143.108214,105.380489 143.084072,105.615868 143.065966,105.799947 C143.04786,105.984026 143.03428,106.131893 143.025227,106.243548 C143.016174,106.355202 143.00863,106.459313 143.002594,106.555879 C142.996559,106.58002 142.987506,106.647918 142.975435,106.759573 C142.963364,106.871227 142.949785,107.004006 142.934696,107.157908 C142.919608,107.31181 142.90452,107.477783 142.889431,107.655827 C142.874343,107.83387 142.860763,107.999843 142.848692,108.153745 C142.836622,108.307648 142.82606,108.440426 142.817007,108.55208 C142.807953,108.663735 142.803427,108.731633 142.803427,108.755774 L142.803427,108.91873 C142.803427,108.979084 142.800409,109.030384 142.794374,109.072632 C142.788338,109.11488 142.770232,109.15411 142.740055,109.190322 C142.709879,109.226534 142.666122,109.259729 142.608786,109.289906 C142.55145,109.320082 142.471481,109.353277 142.36888,109.389489 L139.996975,110.231425 C139.930586,110.255566 139.843073,110.285743 139.734436,110.321955 C139.6258,110.358168 139.520181,110.376274 139.417579,110.376274 C139.333084,110.376274 139.25915,110.35515 139.195779,110.312902 C139.132407,110.270655 139.100722,110.19823 139.100722,110.095629 L139.915498,100.861498 C139.933604,100.662331 139.956237,100.525026 139.983396,100.449584 C140.010555,100.374141 140.078453,100.324349 140.18709,100.300208 C140.736309,100.191571 141.2976,100.081425 141.870961,99.9697708 C142.444322,99.8581163 143.005612,99.7147761 143.554832,99.5397501 C143.603115,99.5397501 143.631783,99.5472943 143.640836,99.5623827 C143.649889,99.5774712 143.654415,99.6001038 143.654415,99.6302807 L143.536726,100.952029 C143.760035,100.837357 144.010503,100.712123 144.28813,100.576326 C144.565758,100.44053 144.856965,100.315296 145.161751,100.200624 C145.466538,100.085952 145.77736,99.9908947 146.094218,99.9154524 C146.411075,99.8400102 146.720388,99.8022891 147.022157,99.8022891 C147.438598,99.8022891 147.823354,99.8973463 148.176423,100.087461 C148.529493,100.277575 148.8207,100.592924 149.050045,101.033506 C149.321637,100.85848 149.609826,100.695525 149.914613,100.544641 C150.219399,100.393756 150.530221,100.263996 150.847079,100.155359 C151.163936,100.046722 151.482303,99.9622266 151.802178,99.9018728 C152.122053,99.841519 152.432875,99.8113421 152.734644,99.8113421 C153.114873,99.8113421 153.473978,99.8656605 153.811959,99.9742974 C154.14994,100.082934 154.444165,100.260978 154.694633,100.508428 C154.945102,100.755879 155.14276,101.077263 155.287609,101.47258 C155.432458,101.867898 155.504883,102.349219 155.504883,102.916545 C155.504883,103.061394 155.501865,103.21077 155.49583,103.364672 C155.489795,103.518574 155.477724,103.677003 155.459618,103.839958 L155.043176,107.714672 C155.013,107.968157 154.994893,108.202028 154.988858,108.416284 C154.982823,108.63054 154.979805,108.8795 154.979805,109.163163 C154.979805,109.211446 154.981314,109.252184 154.984332,109.285379 C154.987349,109.318574 154.988858,109.347242 154.988858,109.371383 C154.988858,109.425702 154.966225,109.467949 154.92096,109.498126 C154.875695,109.528303 154.774602,109.567533 154.617682,109.615816 L152.390627,110.231425 Z" id="Combined-Shape"></path>
        </g>
    </g>
</svg>