<?xml version="1.0" encoding="UTF-8"?>
<svg width="20.0001176px" height="14px" viewBox="0 0 20.0001176 14" version="1.1" xmlns="http://www.w3.org/2000/svg" xmlns:xlink="http://www.w3.org/1999/xlink">
    <title>Fill 1</title>
    <g id="Page-1" stroke="none" stroke-width="1" fill="none" fill-rule="evenodd">
        <path d="M8.00004704,9.99997648 L8.00004704,3.99985889 L13.1959454,7.00008232 L8.00004704,9.99997648 Z M19.5821211,2.18596174 C19.3521326,1.32560355 18.674514,0.647820412 17.8139912,0.417831818 C16.2542833,0 9.99997648,0 9.99997648,0 C9.99997648,0 3.74583426,0 2.18612637,0.417831818 C1.32560355,0.647820412 0.647985042,1.32560355 0.417996449,2.18596174 C0,3.74583426 0,6.99991768 0,6.99991768 C0,6.99991768 0,10.2541657 0.417996449,11.8138736 C0.647985042,12.6742318 1.32560355,13.3521796 2.18612637,13.5820036 C3.74583426,14 9.99997648,14 9.99997648,14 C9.99997648,14 16.2542833,14 17.8139912,13.5820036 C18.674514,13.3521796 19.3521326,12.6742318 19.5821211,11.8138736 C20.0001176,10.2541657 20.0001176,6.99991768 20.0001176,6.99991768 C20.0001176,6.99991768 20.0001176,3.74583426 19.5821211,2.18596174 L19.5821211,2.18596174 Z" id="Fill-1" fill="#000000"></path>
    </g>
</svg>